<svg xmlns="http://www.w3.org/2000/svg" width="189" height="48" fill="none"><rect width="187" height="45" x="1" y="1.468" fill="#DE2E54" rx="7"/><path fill="#fff" d="M32.313 24.1c0 1.225-.164 2.26-.49 3.105-.323.844-.802 1.474-1.436 1.89l1.97 2.922h-2.3l-1.48-2.403h-.11c-1.24 0-2.192-.473-2.856-1.42-.664-.953-.996-2.322-.996-4.11 0-1.772.332-3.13.996-4.072.664-.947 1.621-1.42 2.871-1.42 1.236 0 2.183.475 2.842 1.428.66.947.989 2.307.989 4.08Zm-5.662 0c0 1.22.154 2.15.462 2.79.307.64.76.96 1.355.96 1.2 0 1.802-1.25 1.802-3.75s-.596-3.75-1.788-3.75c-.605 0-1.062.319-1.37.959-.307.634-.46 1.565-.46 2.79Zm14.298 5.368-.615-2.703h-2.791l-.615 2.703h-1.992l2.65-10.752h2.704l2.658 10.752h-2ZM39.96 25l-.571-2.49c-.035-.152-.113-.53-.235-1.135a21.798 21.798 0 0 1-.212-1.224c-.064.42-.144.884-.242 1.392-.098.503-.351 1.655-.762 3.457h2.022Zm5.933-6.24h2.732c1.113 0 1.924.217 2.432.652.508.43.761 1.115.761 2.058 0 .62-.134 1.14-.402 1.56-.269.415-.635.666-1.1.754v.074c.606.15 1.043.434 1.312.85.269.414.403.966.403 1.654 0 .972-.261 1.734-.784 2.286-.517.546-1.228.82-2.131.82h-3.223V18.76Zm1.875 4.306h.916c.42 0 .715-.112.886-.336.17-.225.256-.56.256-1.004 0-.444-.098-.762-.293-.952-.195-.195-.503-.293-.923-.293h-.842v2.585Zm0 1.663v2.996h1.004c.415 0 .722-.127.922-.381.205-.254.308-.647.308-1.18 0-.956-.42-1.435-1.26-1.435h-.974Zm14.312-5.97v6.93c0 1.274-.288 2.248-.864 2.922-.576.669-1.409 1.003-2.498 1.003-1.064 0-1.875-.332-2.431-.996-.557-.669-.835-1.655-.835-2.959v-6.9h1.977v7.047c0 1.362.452 2.043 1.355 2.043.42 0 .745-.173.974-.52.23-.346.344-.84.344-1.48v-7.09h1.978Zm3.853 10.709V18.76h1.992v8.965h2.761v1.743h-4.753Zm11.273-5.94h3.273v5.493a7.466 7.466 0 0 1-2.959.593c-1.245 0-2.204-.473-2.878-1.42-.669-.948-1.003-2.313-1.003-4.095 0-1.719.383-3.064 1.15-4.035.771-.972 1.848-1.458 3.23-1.458.854 0 1.67.22 2.446.66l-.63 1.625c-.605-.351-1.172-.527-1.7-.527-.756 0-1.357.34-1.801 1.018-.44.674-.66 1.594-.66 2.761 0 1.201.16 2.122.477 2.761.322.64.788.96 1.399.96.322 0 .65-.042.981-.125v-2.453h-1.325v-1.758Zm11.975 5.94-.615-2.703h-2.79l-.616 2.703h-1.992l2.651-10.752h2.703l2.659 10.752h-2ZM88.192 25l-.57-2.49c-.035-.152-.113-.53-.235-1.135a21.798 21.798 0 0 1-.213-1.224c-.063.42-.144.884-.241 1.392A148.85 148.85 0 0 1 86.17 25h2.021Zm14.218-2.014 1.428-4.226h2.087l-2.541 6.416v4.292h-1.963v-4.212l-2.534-6.496h2.102l1.421 4.226Zm13.601 1.113c0 1.773-.332 3.135-.996 4.087-.664.952-1.614 1.428-2.849 1.428-1.24 0-2.192-.473-2.856-1.42-.664-.953-.997-2.322-.997-4.11 0-1.772.333-3.13.997-4.072.664-.947 1.621-1.42 2.871-1.42 1.235 0 2.182.475 2.841 1.428.66.947.989 2.307.989 4.08Zm-5.661 0c0 1.22.153 2.151.461 2.79.308.64.759.96 1.355.96 1.201 0 1.802-1.25 1.802-3.75s-.596-3.75-1.787-3.75c-.606 0-1.062.32-1.37.96-.308.634-.461 1.565-.461 2.79Zm14.392 5.369h-5.793v-1.392l3.42-7.58h-3.318V18.76h5.581v1.391l-3.42 7.574h3.53v1.743Zm3.626 0V18.76h1.875v10.708h-1.875Zm6.138 0V18.76h1.993v8.965h2.761v1.743h-4.754Zm8.394 0V18.76h1.875v10.708H142.9Zm11.017-2.952c0 1.001-.254 1.768-.762 2.3-.503.532-1.231.798-2.183.798-.932 0-1.726-.183-2.38-.549v-1.97c.801.522 1.535.784 2.204.784.381 0 .667-.106.857-.316.196-.21.293-.495.293-.856a1.54 1.54 0 0 0-.344-.974c-.229-.298-.608-.628-1.135-.99-.459-.317-.808-.62-1.048-.907a3.468 3.468 0 0 1-.549-.982 3.797 3.797 0 0 1-.19-1.26c0-.918.254-1.645.761-2.182.513-.537 1.199-.806 2.059-.806.82 0 1.608.23 2.365.688l-.659 1.597a6.09 6.09 0 0 0-.74-.366 2.08 2.08 0 0 0-.82-.161c-.322 0-.571.107-.747.322-.171.21-.256.498-.256.864 0 .362.102.677.307.945.21.269.574.574 1.092.916.698.468 1.184.947 1.457 1.435.278.488.418 1.045.418 1.67Zm9.932 2.952h-1.993v-4.695h-2.629v4.695h-1.992V18.76h1.992v4.255h2.629V18.76h1.993v10.708Z"/><rect width="187" height="45" x="1" y="1.468" stroke="#DE2E54" stroke-width="2" rx="7"/></svg>