<svg xmlns="http://www.w3.org/2000/svg" width="189" height="47" fill="none"><rect width="187" height="45" x="1" y="1" fill="#DE2E54" rx="7"/><path fill="#fff" d="M32.313 23.631c0 1.226-.164 2.261-.49 3.106-.323.845-.802 1.474-1.436 1.89l1.97 2.922h-2.3l-1.48-2.402h-.11c-1.24 0-2.192-.474-2.856-1.421-.664-.953-.996-2.322-.996-4.11 0-1.772.332-3.13.996-4.072.664-.947 1.621-1.42 2.871-1.42 1.236 0 2.183.476 2.842 1.428.66.947.989 2.307.989 4.08Zm-5.662 0c0 1.221.154 2.151.462 2.79.307.64.76.96 1.355.96 1.2 0 1.802-1.25 1.802-3.75s-.596-3.75-1.788-3.75c-.605 0-1.062.32-1.37.96-.307.635-.46 1.565-.46 2.79ZM40.95 29l-.615-2.703h-2.791L36.928 29h-1.992l2.65-10.752h2.704L42.948 29h-2Zm-.989-4.468-.571-2.49c-.035-.151-.113-.53-.235-1.135a21.784 21.784 0 0 1-.212-1.223c-.064.42-.144.883-.242 1.391-.098.503-.351 1.655-.762 3.457h2.022Zm5.933-6.24h2.732c1.113 0 1.924.217 2.432.652.508.43.761 1.116.761 2.058 0 .62-.134 1.14-.402 1.56-.269.415-.635.666-1.1.754v.074c.606.151 1.043.434 1.312.85.269.414.403.966.403 1.655 0 .971-.261 1.733-.784 2.285-.517.547-1.228.82-2.131.82h-3.223V18.292Zm1.875 4.307h.916c.42 0 .715-.113.886-.337.17-.225.256-.56.256-1.004 0-.444-.098-.761-.293-.952-.195-.195-.503-.293-.923-.293h-.842V22.6Zm0 1.662v2.996h1.004c.415 0 .722-.127.922-.381.205-.254.308-.647.308-1.18 0-.956-.42-1.435-1.26-1.435h-.974Zm14.312-5.969v6.929c0 1.274-.288 2.248-.864 2.922-.576.669-1.409 1.003-2.498 1.003-1.064 0-1.875-.332-2.431-.996-.557-.669-.835-1.655-.835-2.959v-6.899h1.977v7.046c0 1.362.452 2.043 1.355 2.043.42 0 .745-.173.974-.52.23-.346.344-.84.344-1.48v-7.089h1.978ZM65.933 29V18.292h1.992v8.965h2.761V29h-4.753Zm11.273-5.94h3.273v5.493a7.466 7.466 0 0 1-2.959.593c-1.245 0-2.204-.473-2.878-1.42-.669-.948-1.003-2.312-1.003-4.095 0-1.718.383-3.064 1.15-4.035.771-.972 1.848-1.458 3.23-1.458.854 0 1.67.22 2.446.66l-.63 1.625c-.605-.351-1.172-.527-1.7-.527-.756 0-1.357.34-1.801 1.018-.44.674-.66 1.594-.66 2.761 0 1.201.16 2.122.477 2.761.322.64.788.96 1.399.96.322 0 .65-.041.981-.125v-2.453h-1.325V23.06ZM89.18 29l-.615-2.703h-2.79L85.16 29h-1.992l2.651-10.752h2.703L91.181 29h-2Zm-.989-4.468-.57-2.49c-.035-.151-.113-.53-.235-1.135a21.784 21.784 0 0 1-.213-1.223c-.063.42-.144.883-.241 1.391-.098.503-.352 1.655-.762 3.457h2.021Zm14.218-2.014 1.428-4.226h2.087l-2.541 6.416V29h-1.963v-4.211l-2.534-6.497h2.102l1.421 4.226Zm13.601 1.113c0 1.773-.332 3.135-.996 4.087-.664.952-1.614 1.428-2.849 1.428-1.24 0-2.192-.473-2.856-1.42-.664-.953-.997-2.322-.997-4.11 0-1.772.333-3.13.997-4.072.664-.947 1.621-1.42 2.871-1.42 1.235 0 2.182.476 2.841 1.428.66.947.989 2.307.989 4.08Zm-5.661 0c0 1.221.153 2.151.461 2.79.308.64.759.96 1.355.96 1.201 0 1.802-1.25 1.802-3.75s-.596-3.75-1.787-3.75c-.606 0-1.062.32-1.37.96-.308.635-.461 1.565-.461 2.79ZM124.742 29h-5.793v-1.392l3.42-7.58h-3.318v-1.736h5.581v1.392l-3.42 7.573h3.53V29Zm3.626 0V18.292h1.875V29h-1.875Zm6.138 0V18.292h1.993v8.965h2.761V29h-4.754Zm8.394 0V18.292h1.875V29H142.9Zm11.017-2.952c0 1.001-.254 1.768-.762 2.3-.503.532-1.231.799-2.183.799-.932 0-1.726-.184-2.38-.55v-1.97c.801.522 1.535.784 2.204.784.381 0 .667-.105.857-.315.196-.21.293-.496.293-.857a1.54 1.54 0 0 0-.344-.974c-.229-.298-.608-.628-1.135-.99-.459-.316-.808-.62-1.048-.907a3.467 3.467 0 0 1-.549-.982 3.796 3.796 0 0 1-.19-1.26c0-.918.254-1.645.761-2.182.513-.537 1.199-.806 2.059-.806.82 0 1.608.23 2.365.689l-.659 1.596a6.105 6.105 0 0 0-.74-.366 2.082 2.082 0 0 0-.82-.161c-.322 0-.571.107-.747.322-.171.21-.256.498-.256.864 0 .362.102.677.307.945.21.269.574.574 1.092.916.698.469 1.184.947 1.457 1.435.278.489.418 1.045.418 1.67ZM163.849 29h-1.993v-4.695h-2.629V29h-1.992V18.292h1.992v4.255h2.629v-4.255h1.993V29Z"/><rect width="187" height="45" x="1" y="1" stroke="#DE2E54" stroke-width="2" rx="7"/></svg>